<?xml version="1.0" standalone="no"?>
<!DOCTYPE svg PUBLIC "-//W3C//DTD SVG 20010904//EN"
  "http://www.w3.org/TR/2001/REC-SVG-20010904/DTD/svg10.dtd">
<svg version="1.0" xmlns="http://www.w3.org/2000/svg"
     width="588.000000pt" height="117.000000pt" viewBox="0 0 588.000000 117.000000"
     preserveAspectRatio="xMidYMid meet">
  <metadata>
    Created by potrace 1.16, written by Peter Selinger 2001-2019
  </metadata>
  <g transform="translate(0.000000,117.000000) scale(0.100000,-0.100000)"
     fill="#000000" stroke="none">
    <path d="M460 1034 c-34 -29 -70 -92 -70 -124 0 -15 7 -20 25 -20 19 0 28 9
43 43 46 103 177 127 253 46 25 -27 26 -27 49 -9 l24 18 -37 36 -38 36 -109 0
c-102 0 -110 -1 -140 -26z"/>
    <path d="M795 963 c4 -10 10 -43 12 -73 8 -90 -31 -158 -66 -116 -8 10 -8 21
-1 40 12 32 13 96 2 114 -6 8 -33 -13 -90 -72 -109 -111 -108 -113 6 -228 99
-99 127 -109 179 -64 l28 25 140 -140 c137 -136 142 -140 191 -145 28 -4 54
-2 57 3 3 5 1 30 -5 56 -8 41 -15 51 -44 64 -21 11 -34 24 -34 36 0 11 -11 23
-28 29 -17 7 -33 23 -40 40 -5 15 -17 28 -25 28 -9 0 -26 18 -38 40 -13 22
-26 40 -31 40 -4 0 -15 11 -24 25 -15 23 -15 26 5 51 41 52 30 79 -66 176 -61
62 -95 88 -111 88 -19 0 -23 -4 -17 -17z"/>
    <path d="M2898 876 c-102 -28 -159 -94 -178 -207 -18 -104 4 -190 65 -258 50
-55 105 -74 199 -69 64 3 81 8 118 34 43 30 88 94 88 127 0 14 -9 17 -55 17
-39 0 -55 -4 -55 -13 0 -7 -14 -26 -31 -43 -26 -25 -38 -29 -84 -29 -49 0 -58
4 -90 35 -54 55 -68 165 -29 241 40 79 133 104 194 52 17 -14 36 -37 41 -50 7
-20 15 -23 60 -23 l52 0 -6 37 c-18 107 -165 184 -289 149z"/>
    <path d="M1590 610 l0 -270 55 0 55 0 0 270 0 270 -55 0 -55 0 0 -270z"/>
    <path d="M5240 610 l0 -270 50 0 50 0 0 270 0 270 -50 0 -50 0 0 -270z"/>
    <path d="M4230 790 c0 -49 -1 -50 -31 -50 -29 0 -30 -2 -27 -37 3 -33 7 -38
31 -41 l27 -3 0 -120 c0 -132 10 -167 55 -187 29 -13 121 -16 128 -4 3 4 2 22
0 40 -4 25 -10 32 -27 32 -40 0 -46 18 -46 132 l0 108 35 0 c34 0 35 1 35 40
0 39 -1 40 -35 40 l-35 0 0 50 0 50 -55 0 -55 0 0 -50z"/>
    <path d="M349 801 l-29 -29 0 -312 c0 -195 4 -319 10 -331 10 -18 23 -19 213
-19 145 0 206 3 215 12 8 8 12 64 12 184 l0 172 -29 7 c-36 8 -217 190 -226
228 -7 27 -3 65 10 100 6 15 -1 17 -70 17 -71 0 -79 -2 -106 -29z m151 -367
l0 -54 45 0 45 0 0 48 c0 55 14 76 42 61 16 -9 18 -23 18 -138 0 -102 -3 -131
-15 -141 -29 -24 -45 -4 -45 55 l0 56 -42 -3 -43 -3 -3 -53 c-3 -59 -25 -79
-48 -47 -21 28 -19 248 1 269 28 28 45 9 45 -50z"/>
    <path d="M1963 735 c-17 -7 -38 -26 -47 -42 l-15 -28 -1 38 0 37 -55 0 -55 0
0 -200 0 -200 55 0 55 0 0 135 c0 131 1 137 25 160 29 30 74 32 106 6 23 -18
24 -26 27 -160 l4 -141 49 0 49 0 0 153 c0 125 -3 158 -18 187 -30 61 -109 86
-179 55z"/>
    <path d="M2424 731 c-18 -11 -39 -30 -48 -42 -16 -23 -16 -23 -16 14 l0 37
-50 0 -50 0 0 -200 0 -200 49 0 49 0 4 134 c3 126 4 136 27 160 34 36 82 35
110 0 19 -24 21 -40 21 -160 l0 -134 56 0 56 0 -4 159 c-3 143 -5 163 -24 188
-43 59 -123 79 -180 44z"/>
    <path d="M3387 736 c-79 -29 -116 -91 -117 -197 0 -113 52 -181 154 -200 130
-24 236 66 236 201 0 150 -133 245 -273 196z m128 -90 c27 -28 40 -80 32 -138
-16 -118 -152 -118 -171 1 -18 116 71 205 139 137z"/>
    <path d="M3914 736 c-17 -7 -40 -27 -52 -42 l-21 -29 -1 38 0 37 -50 0 -50 0
0 -200 0 -200 55 0 55 0 0 138 c0 132 1 140 23 160 31 29 77 29 105 -1 20 -22
22 -33 22 -160 l0 -137 56 0 56 0 -4 158 c-3 170 -10 193 -63 228 -34 22 -94
27 -131 10z"/>
    <path d="M4654 739 c-11 -6 -28 -22 -37 -37 l-16 -27 -1 33 0 32 -55 0 -55 0
0 -200 0 -200 55 0 55 0 0 129 c0 123 1 131 24 158 19 22 32 28 65 28 l41 0 0
47 c0 46 -1 48 -27 47 -16 0 -37 -5 -49 -10z"/>
    <path d="M4887 735 c-98 -34 -145 -138 -117 -256 31 -129 179 -184 302 -112
100 58 111 254 20 336 -48 43 -136 57 -205 32z m116 -86 c51 -39 59 -149 15
-204 -17 -22 -27 -26 -61 -23 -51 4 -78 38 -85 106 -10 106 64 174 131 121z"/>
  </g>
</svg>
